<svg width="160" height="129" viewBox="0 0 129 129" fill="none" xmlns="http://www.w3.org/2000/svg">
<path d="M64.964 0.963989C29.6175 0.963989 0.963997 30.0726 0.963997 65.9795C0.963997 96.3012 21.3971 121.773 49.038 128.964C49.0195 121.45 48.9953 112.234 48.9811 109.363C30.5121 113.443 26.6152 101.406 26.6152 101.406C23.5958 93.6104 19.2438 91.5368 19.2438 91.5368C13.2193 87.3512 19.6975 87.4365 19.6975 87.4365C26.3635 87.9115 29.8749 94.3869 29.8749 94.3869C35.7956 104.697 45.4056 101.716 49.1944 99.9933C49.7903 95.6356 51.5098 92.6589 53.4099 90.975C38.6643 89.2698 23.162 83.487 23.162 57.6452C23.162 50.2824 25.7562 44.2664 30.0029 39.5432C29.3132 37.8436 27.0404 30.9843 30.6458 21.6943C30.6458 21.6943 36.2209 19.8824 48.9071 28.6077C54.2035 27.113 59.8824 26.3635 65.5244 26.3379C71.1663 26.3635 76.8495 27.113 82.1558 28.6077C94.8278 19.8824 100.394 21.6943 100.394 21.6943C104.008 30.9843 101.736 37.8436 101.046 39.5432C105.302 44.2664 107.878 50.2824 107.878 57.6452C107.878 83.5496 92.3475 89.2513 77.5635 90.9224C79.9443 93.0159 82.0662 97.119 82.0662 103.411C82.0662 108.407 82.0435 119.91 82.0221 128.641C109.083 121.055 128.964 95.8831 128.964 65.9795C128.964 30.0726 100.31 0.963989 64.964 0.963989Z" fill="white"/>
</svg>
