<svg width="128" height="126" viewBox="0 0 128 126" fill="none" xmlns="http://www.w3.org/2000/svg">
<path d="M3.05459 41.868H29.1818V125.906H3.05459V41.868ZM16.1189 0.0940552C24.4695 0.0940552 31.2558 6.88039 31.2558 15.245C31.2558 23.6012 24.4695 30.3875 16.1189 30.3875C7.74873 30.3875 0.981995 23.6012 0.981995 15.245C0.981995 6.88039 7.74873 0.0940552 16.1189 0.0940552Z" fill="white"/>
<path d="M45.5637 41.868H70.6169V53.3597H70.974C74.461 46.7498 82.9838 39.787 95.6868 39.787C122.136 39.787 127.018 57.187 127.018 79.8146V125.906H100.91V85.0381C100.91 75.2899 100.741 62.7549 87.3377 62.7549C73.7454 62.7549 71.6714 73.3798 71.6714 84.3379V125.906H45.5637V41.868Z" fill="white"/>
</svg>
