<svg width="128" height="104" viewBox="0 0 128 104" fill="none" xmlns="http://www.w3.org/2000/svg">
<path d="M40.6189 103.215C88.1821 103.215 114.192 63.811 114.192 29.6426C114.192 28.5223 114.169 27.409 114.118 26.2999C119.166 22.6504 123.555 18.0963 127.018 12.9106C122.384 14.9692 117.399 16.3556 112.168 16.9816C117.506 13.7803 121.605 8.71501 123.538 2.67791C118.54 5.63981 113.008 7.79501 107.12 8.95451C102.4 3.92851 95.6812 0.784607 88.2451 0.784607C73.9638 0.784607 62.3825 12.3659 62.3825 26.6416C62.3825 28.6707 62.6094 30.6439 63.0533 32.5372C41.5628 31.4561 22.5061 21.166 9.7541 5.52071C7.53167 9.34101 6.2517 13.7817 6.2517 18.5178C6.2517 27.4888 10.817 35.4081 17.7588 40.042C13.517 39.9117 9.53284 38.7466 6.04724 36.8071C6.04164 36.9149 6.04164 37.0227 6.04164 37.1362C6.04164 49.6613 14.9566 60.1153 26.7872 62.4862C24.6151 63.0772 22.3297 63.3951 19.97 63.3951C18.3035 63.3951 16.6833 63.2298 15.1092 62.9287C18.4016 73.2021 27.9467 80.6774 39.2661 80.8889C30.4142 87.825 19.2656 91.958 7.15076 91.958C5.06416 91.958 3.00557 91.839 0.981995 91.599C12.4261 98.934 26.0141 103.215 40.6189 103.215Z" fill="white"/>
</svg>
