<?xml version="1.0" encoding="UTF-8" standalone="no"?> <svg width="64" height="64" viewBox="0 0 64 64" fill="none" xmlns="http://www.w3.org/2000/svg">
<path d="M3.0001 61.0009L16.5341 56.8819C17.0796 56.7174 17.6606 56.7113 18.2094 56.8643C18.7582 57.0173 19.2523 57.323 19.6341 57.7459C20.5873 58.7912 21.752 59.6218 23.0508 60.1825C24.3496 60.7433 25.7529 61.0212 27.1674 60.9981C28.5819 60.9749 29.9753 60.6511 31.255 60.0481C32.5348 59.4452 33.6716 58.5769 34.5901 57.5009C38.548 59.1835 42.96 59.4726 47.1036 58.3208C51.2473 57.1691 54.8772 54.6448 57.3992 51.1612C59.9212 47.6775 61.1859 43.4409 60.9863 39.1448C60.7866 34.8487 59.1344 30.7476 56.3001 27.5129C58.6911 25.6839 60.3067 23.0226 60.8261 20.0574C61.3456 17.0922 60.7308 14.0402 59.104 11.5073C57.4771 8.97448 54.9572 7.14613 52.0446 6.38538C49.132 5.62464 46.0398 5.98714 43.3821 7.40091C40.9453 5.19207 37.9193 3.73852 34.672 3.21688C31.4247 2.69524 28.0958 3.12796 25.0898 4.46247C22.0837 5.79698 19.53 7.97583 17.7388 10.7343C15.9477 13.4927 14.9962 16.712 15.0001 20.0009C15.0001 20.3549 15.0321 20.7009 15.0531 21.0489C12.1577 21.2559 9.41507 22.4268 7.26292 24.3747C5.11077 26.3226 3.67314 28.9353 3.17947 31.7958C2.6858 34.6563 3.16454 37.5998 4.53929 40.1564C5.91404 42.713 8.10556 44.7354 10.7641 45.9009C11.1837 46.0925 11.5533 46.3788 11.8437 46.7372C12.1341 47.0956 12.3374 47.5165 12.4378 47.9668C12.5382 48.417 12.5329 48.8844 12.4222 49.3323C12.3116 49.7801 12.0986 50.1962 11.8001 50.5479L3.0001 61.0009Z" fill="#FF97C3"/>
<path d="M47.2809 22.0007L53.5339 18.8747C54.0358 18.6239 54.4415 18.215 54.6883 17.7111C54.9351 17.2071 55.0095 16.636 54.8999 16.0856L54.8509 15.8417C54.7797 15.486 54.6338 15.1496 54.4227 14.8547C54.2116 14.5597 53.9402 14.3131 53.6265 14.131C53.3128 13.949 52.964 13.8357 52.6032 13.7988C52.2425 13.7618 51.8779 13.802 51.5339 13.9167L48.2809 15.0007L46.3659 13.0857C45.8986 12.617 45.2678 12.3477 44.6062 12.3345C43.9445 12.3213 43.3035 12.5651 42.8179 13.0147C42.3323 13.4643 42.0399 14.0847 42.0022 14.7454C41.9645 15.4062 42.1845 16.0558 42.6159 16.5577L47.2809 22.0007Z" fill="#FF177A"/>
<path d="M26.2472 49.6807L25.9172 50.9997L24.4352 49.8887C24.1391 49.6665 23.7958 49.5154 23.4319 49.4472C23.068 49.379 22.6933 49.3955 22.3368 49.4954C21.9803 49.5952 21.6516 49.7758 21.3761 50.0232C21.1006 50.2705 20.8858 50.578 20.7482 50.9217L20.7412 50.9387C20.5163 51.5004 20.5107 52.126 20.7254 52.6916C20.94 53.2573 21.3593 53.7216 21.9002 53.9927L27.9172 56.9997L30.7452 51.3447C30.8947 51.0417 30.9789 50.7106 30.9924 50.3729C31.0058 50.0353 30.9481 49.6986 30.823 49.3846C30.698 49.0707 30.5083 48.7865 30.2664 48.5506C30.0245 48.3146 29.7357 48.1322 29.4188 48.015C29.1018 47.8977 28.7638 47.8485 28.4266 47.8703C28.0894 47.8921 27.7605 47.9845 27.4613 48.1415C27.1621 48.2986 26.8992 48.5168 26.6897 48.7819C26.4802 49.0471 26.3288 49.3533 26.2452 49.6807H26.2472Z" fill="#FF177A"/>
<path d="M60.842 39.4745C60.4597 42.3772 59.4122 45.1523 57.781 47.5834C56.1498 50.0146 53.9791 52.0362 51.4381 53.4904C48.8972 54.9447 46.0547 55.7924 43.1322 55.9675C40.2098 56.1425 37.2864 55.6401 34.59 54.4995C33.6715 55.576 32.5345 56.4447 31.2545 57.048C29.9744 57.6513 28.5807 57.9752 27.1658 57.9984C25.7509 58.0216 24.3473 57.7434 23.0482 57.1824C21.7491 56.6214 20.5842 55.7904 19.631 54.7445C19.2492 54.3216 18.7551 54.0159 18.2063 53.8629C17.6575 53.71 17.0765 53.7161 16.531 53.8805L6.4 56.9655L3 60.9995L16.534 56.8805C17.0795 56.7161 17.6605 56.71 18.2093 56.8629C18.7581 57.0159 19.2522 57.3216 19.634 57.7445C20.5872 58.7899 21.7519 59.6205 23.0507 60.1812C24.3495 60.7419 25.7528 61.0199 27.1673 60.9967C28.5818 60.9735 29.9752 60.6497 31.2549 60.0468C32.5347 59.4438 33.6715 58.5755 34.59 57.4995C37.2864 58.6401 40.2098 59.1425 43.1322 58.9675C46.0547 58.7924 48.8972 57.9447 51.4381 56.4904C53.9791 55.0362 56.1498 53.0146 57.781 50.5834C59.4122 48.1523 60.4597 45.3772 60.842 42.4745C61.0088 41.1629 61.0406 39.8376 60.937 38.5195C60.913 38.8365 60.883 39.1545 60.842 39.4745Z" fill="#E6156E"/>
<path opacity="0.5" d="M26.1899 12.0009C27.7424 12.0009 29.0009 10.7424 29.0009 9.18991C29.0009 7.63743 27.7424 6.37891 26.1899 6.37891C24.6374 6.37891 23.3789 7.63743 23.3789 9.18991C23.3789 10.7424 24.6374 12.0009 26.1899 12.0009Z" fill="white"/>
<path opacity="0.5" d="M21.5859 13.9999C22.3668 13.9999 22.9999 13.3668 22.9999 12.5859C22.9999 11.8049 22.3668 11.1719 21.5859 11.1719C20.8049 11.1719 20.1719 11.8049 20.1719 12.5859C20.1719 13.3668 20.8049 13.9999 21.5859 13.9999Z" fill="white"/>
<path d="M54.9423 16.6637V16.6467C54.9326 17.1105 54.7966 17.5629 54.5491 17.9553C54.3015 18.3477 53.9518 18.6652 53.5373 18.8737L47.2813 21.9997L42.6163 16.5567C42.3396 16.2362 42.1471 15.8518 42.0563 15.4382C41.9655 15.0246 41.9791 14.5949 42.0961 14.188C42.213 13.781 42.4295 13.4096 42.726 13.1073C43.0225 12.805 43.3897 12.5814 43.7943 12.4567C43.1857 12.2846 42.5378 12.3132 41.9467 12.5383C41.3556 12.7633 40.8527 13.1728 40.5125 13.7061C40.1724 14.2393 40.0131 14.868 40.0583 15.4989C40.1035 16.1298 40.3507 16.7293 40.7633 17.2087L46.1493 23.4917L53.3683 19.8817C53.9473 19.5922 54.4151 19.1203 54.6995 18.5388C54.9839 17.9573 55.0692 17.2984 54.9423 16.6637Z" fill="#E6156E"/>
<path opacity="0.5" d="M28.5145 23.1429C28.2872 23.0063 28.015 22.9656 27.7577 23.0298C27.5004 23.0939 27.2792 23.2576 27.1425 23.4849L21.9995 32.0559L16.8565 23.4849C16.7902 23.3698 16.7016 23.2691 16.5958 23.1886C16.4901 23.1082 16.3695 23.0496 16.2409 23.0163C16.1123 22.983 15.9783 22.9757 15.8468 22.9947C15.7154 23.0138 15.589 23.0588 15.4751 23.1272C15.3613 23.1957 15.2622 23.2861 15.1837 23.3932C15.1051 23.5004 15.0487 23.6221 15.0178 23.7513C14.9868 23.8805 14.9819 24.0145 15.0033 24.1456C15.0247 24.2767 15.0721 24.4022 15.1425 24.5149L20.9995 34.2769V43.9999C20.9995 44.2651 21.1049 44.5194 21.2924 44.707C21.48 44.8945 21.7343 44.9999 21.9995 44.9999C22.2648 44.9999 22.5191 44.8945 22.7066 44.707C22.8942 44.5194 22.9995 44.2651 22.9995 43.9999V34.2769L28.8565 24.5149C28.9931 24.2875 29.0338 24.0153 28.9696 23.758C28.9055 23.5008 28.7418 23.2795 28.5145 23.1429Z" fill="white"/>
<path opacity="0.5" d="M41 26C41.2652 26 41.5196 25.8946 41.7071 25.7071C41.8946 25.5196 42 25.2652 42 25C42 24.7348 41.8946 24.4804 41.7071 24.2929C41.5196 24.1054 41.2652 24 41 24H32C31.7348 24 31.4804 24.1054 31.2929 24.2929C31.1054 24.4804 31 24.7348 31 25V43C31 43.2652 31.1054 43.5196 31.2929 43.7071C31.4804 43.8946 31.7348 44 32 44H41C41.2652 44 41.5196 43.8946 41.7071 43.7071C41.8946 43.5196 42 43.2652 42 43C42 42.7348 41.8946 42.4804 41.7071 42.2929C41.5196 42.1054 41.2652 42 41 42H33V35H41C41.2652 35 41.5196 34.8946 41.7071 34.7071C41.8946 34.5196 42 34.2652 42 34C42 33.7348 41.8946 33.4804 41.7071 33.2929C41.5196 33.1054 41.2652 33 41 33H33V26H41Z" fill="white"/>
<path opacity="0.5" d="M53 31C53.2652 31 53.5196 30.8946 53.7071 30.7071C53.8946 30.5196 54 30.2652 54 30V29.5C54 28.4122 53.6774 27.3488 53.0731 26.4444C52.4687 25.5399 51.6098 24.8349 50.6048 24.4187C49.5998 24.0024 48.4939 23.8935 47.427 24.1057C46.3601 24.3179 45.3801 24.8417 44.6109 25.6109C43.8417 26.3801 43.3179 27.3601 43.1057 28.427C42.8935 29.4939 43.0024 30.5998 43.4187 31.6048C43.8349 32.6098 44.5399 33.4687 45.4444 34.0731C46.3488 34.6774 47.4122 35 48.5 35C49.1922 35 49.8689 35.2053 50.4445 35.5899C51.0201 35.9744 51.4687 36.5211 51.7336 37.1606C51.9985 37.8002 52.0678 38.5039 51.9327 39.1828C51.7977 39.8618 51.4644 40.4854 50.9749 40.9749C50.4854 41.4644 49.8618 41.7977 49.1828 41.9327C48.5039 42.0678 47.8001 41.9985 47.1606 41.7336C46.5211 41.4687 45.9744 41.0201 45.5899 40.4445C45.2053 39.8689 45 39.1922 45 38.5V38C45 37.7348 44.8946 37.4804 44.7071 37.2929C44.5196 37.1054 44.2652 37 44 37C43.7348 37 43.4804 37.1054 43.2929 37.2929C43.1054 37.4804 43 37.7348 43 38V38.5C43 39.5878 43.3226 40.6512 43.9269 41.5556C44.5313 42.4601 45.3902 43.1651 46.3952 43.5813C47.4002 43.9976 48.5061 44.1065 49.573 43.8943C50.6399 43.6821 51.6199 43.1583 52.3891 42.3891C53.1583 41.6199 53.6821 40.6399 53.8943 39.573C54.1065 38.5061 53.9976 37.4002 53.5813 36.3952C53.1651 35.3903 52.4601 34.5313 51.5556 33.9269C50.6512 33.3226 49.5878 33 48.5 33C47.8078 33 47.1311 32.7947 46.5555 32.4101C45.9799 32.0256 45.5313 31.4789 45.2664 30.8394C45.0015 30.1999 44.9322 29.4961 45.0673 28.8172C45.2023 28.1383 45.5356 27.5146 46.0251 27.0251C46.5146 26.5356 47.1383 26.2023 47.8172 26.0673C48.4961 25.9322 49.1999 26.0015 49.8394 26.2664C50.4789 26.5313 51.0256 26.9799 51.4101 27.5555C51.7947 28.1311 52 28.8078 52 29.5V30C52 30.2652 52.1054 30.5196 52.2929 30.7071C52.4804 30.8946 52.7348 31 53 31Z" fill="white"/>
<path d="M10.3619 46.8109C10.6372 46.9313 10.8802 47.1148 11.0713 47.3465C11.2624 47.5783 11.3962 47.8518 11.4619 48.1449C11.5347 48.4504 11.5345 48.7687 11.4614 49.0742C11.3883 49.3796 11.2442 49.6635 11.0409 49.9029L2.24095 60.3559C2.10239 60.5209 2.02084 60.7263 2.00845 60.9414C1.99606 61.1565 2.05349 61.3699 2.17219 61.5497C2.29088 61.7296 2.4645 61.8663 2.66717 61.9395C2.86984 62.0126 3.09074 62.0184 3.29695 61.9559L16.8319 57.8359C17.1962 57.7263 17.5841 57.7229 17.9502 57.826C18.3163 57.929 18.6454 58.1344 18.8989 58.4179C19.9062 59.5231 21.1287 60.4108 22.4915 61.0263C23.8543 61.6419 25.3285 61.9724 26.8236 61.9975C28.3187 62.0226 29.8032 61.7418 31.1859 61.1723C32.5685 60.6028 33.8202 59.7567 34.8639 58.6859C38.9508 60.249 43.4378 60.4279 47.6361 59.195C51.8345 57.9622 55.5123 55.3857 58.1052 51.8611C60.698 48.3364 62.0627 44.0583 61.9896 39.6833C61.9166 35.3083 60.41 31.0781 57.7009 27.6419C60.0117 25.5599 61.4988 22.718 61.8919 19.6326C62.2851 16.5472 61.5582 13.4231 59.8434 10.8282C58.1286 8.23331 55.5396 6.33976 52.5471 5.49172C49.5547 4.64368 46.3572 4.89744 43.5359 6.20688C40.913 4.00568 37.716 2.59932 34.3211 2.15323C30.9261 1.70713 27.4743 2.23987 24.3718 3.68876C21.2692 5.13766 18.645 7.44245 16.8078 10.332C14.9706 13.2216 13.9968 16.5757 14.0009 19.9999C14.0009 20.0519 14.0009 20.0999 14.0009 20.1559C10.9919 20.5881 8.20559 21.9886 6.0635 24.1455C3.92141 26.3025 2.54016 29.0984 2.12874 32.1103C1.71732 35.1223 2.29813 38.1862 3.78327 40.8386C5.26842 43.491 7.57709 45.5875 10.3599 46.8109H10.3619ZM15.1259 22.0449C15.3883 22.0259 15.6326 21.9043 15.8059 21.7065C15.9792 21.5086 16.0676 21.2504 16.0519 20.9879L16.0339 20.7149C16.0179 20.4779 16.0009 20.2409 16.0009 19.9999C15.9968 16.9042 16.892 13.8741 18.5776 11.2776C20.2633 8.68116 22.6668 6.63025 25.4962 5.37414C28.3255 4.11803 31.4588 3.71082 34.5152 4.20199C37.5717 4.69316 40.4196 6.06156 42.7129 8.14088C42.8654 8.27848 43.0564 8.36582 43.2602 8.39105C43.464 8.41628 43.6706 8.37816 43.8519 8.28188C46.2881 6.98806 49.1217 6.6575 51.7903 7.35582C54.4589 8.05414 56.7674 9.73028 58.2576 12.0516C59.7478 14.3728 60.3108 17.1696 59.8347 19.8866C59.3587 22.6037 57.8785 25.0425 55.6879 26.7189C55.5796 26.8021 55.4894 26.9067 55.423 27.0261C55.3566 27.1455 55.3154 27.2773 55.3019 27.4132C55.2884 27.5492 55.303 27.6865 55.3446 27.8166C55.3862 27.9468 55.4541 28.067 55.5439 28.1699C57.2358 30.0867 58.496 32.3448 59.2391 34.7911C59.9822 37.2374 60.1909 39.8149 59.8509 42.3489C59.4883 45.0984 58.4955 47.727 56.95 50.0297C55.4045 52.3324 53.348 54.2471 50.9408 55.6244C48.5337 57.0017 45.841 57.8044 43.0726 57.97C40.3043 58.1355 37.5351 57.6595 34.9809 56.5789C34.7856 56.4962 34.5689 56.4778 34.3624 56.5263C34.1558 56.5748 33.9701 56.6878 33.8319 56.8489C33.0056 57.8179 31.9825 58.5999 30.8306 59.143C29.6787 59.6861 28.4244 59.9778 27.1511 59.9988C25.8777 60.0198 24.6145 59.7696 23.4453 59.2648C22.2762 58.7599 21.2278 58.0121 20.3699 57.0709C19.9911 56.6568 19.5303 56.3259 19.0168 56.0994C18.5032 55.8728 17.9482 55.7555 17.3869 55.7549C17 55.7545 16.6152 55.8114 16.2449 55.9239L5.94195 59.0599L12.5679 51.1909C12.9727 50.7143 13.2597 50.1491 13.4056 49.5411C13.5515 48.9331 13.5523 48.2993 13.4079 47.6909C13.2732 47.0948 13.0003 46.5387 12.6113 46.0674C12.2222 45.5962 11.7278 45.223 11.1679 44.9779C8.71601 43.9011 6.69519 42.0344 5.42767 39.6754C4.16015 37.3164 3.71893 34.6009 4.17435 31.9619C4.62976 29.323 5.9556 26.9125 7.94046 25.1148C9.92532 23.317 12.4549 22.2356 15.1259 22.0429V22.0449Z" fill="black"/>
<path d="M36.4 13.8C36.5051 13.8788 36.6246 13.9361 36.7518 13.9687C36.879 14.0013 37.0114 14.0085 37.1414 13.9899C37.2714 13.9714 37.3965 13.9274 37.5095 13.8605C37.6225 13.7936 37.7212 13.7051 37.8 13.6C37.8788 13.4949 37.9361 13.3754 37.9687 13.2482C38.0013 13.121 38.0085 12.9886 37.99 12.8586C37.9714 12.7286 37.9274 12.6035 37.8605 12.4905C37.7936 12.3775 37.7051 12.2788 37.6 12.2L33.6 9.2C33.4949 9.12121 33.3754 9.06388 33.2482 9.03129C33.121 8.99869 32.9886 8.99148 32.8586 9.01005C32.596 9.04756 32.3591 9.18783 32.2 9.4C32.0409 9.61217 31.9725 9.87887 32.0101 10.1414C32.0476 10.404 32.1878 10.6409 32.4 10.8L36.4 13.8Z" fill="black"/>
<path d="M38.1821 11.5732C38.3386 11.7793 38.5688 11.9167 38.8244 11.9566C39.0801 11.9965 39.3412 11.9358 39.553 11.7872C39.7648 11.6385 39.9108 11.4136 39.9602 11.1596C40.0097 10.9057 39.9587 10.6424 39.8181 10.4252L37.1001 6.55022C36.9474 6.33394 36.7152 6.18704 36.4544 6.14172C36.1936 6.0964 35.9254 6.15636 35.7087 6.30845C35.492 6.46055 35.3445 6.69237 35.2984 6.95307C35.2524 7.21378 35.3116 7.48211 35.4631 7.69922L38.1821 11.5732Z" fill="black"/>
<path d="M46.5213 22.651C46.6665 22.8205 46.8641 22.9366 47.0828 22.9809C47.3015 23.0251 47.5288 22.9949 47.7283 22.895L53.9813 19.768C54.6792 19.4185 55.243 18.8497 55.5862 18.1487C55.9295 17.4478 56.0332 16.6536 55.8813 15.888L55.8323 15.645C55.7333 15.1505 55.5302 14.6827 55.2367 14.2725C54.9431 13.8624 54.5657 13.5194 54.1295 13.2662C53.6933 13.0129 53.2083 12.8553 52.7066 12.8038C52.2049 12.7522 51.6979 12.8078 51.2193 12.967L48.5543 13.856L47.0763 12.378C46.4267 11.7242 45.5487 11.3481 44.6273 11.3289C43.7058 11.3097 42.8129 11.6489 42.1366 12.275C41.4603 12.9011 41.0534 13.7653 41.0017 14.6855C40.95 15.6057 41.2575 16.5101 41.8593 17.208L46.5213 22.651ZM43.3113 13.959C43.4442 13.7794 43.6147 13.6309 43.8109 13.524C44.0072 13.4171 44.2243 13.3543 44.4473 13.34C44.4863 13.34 44.5243 13.34 44.5623 13.34C44.7669 13.3393 44.9695 13.3793 45.1583 13.4578C45.3472 13.5363 45.5185 13.6516 45.6623 13.797L47.5773 15.712C47.7086 15.8434 47.8738 15.9356 48.0545 15.9783C48.2351 16.021 48.4242 16.0126 48.6003 15.954L51.8513 14.87C52.0608 14.7999 52.2829 14.7752 52.5027 14.7976C52.7225 14.8199 52.935 14.8888 53.1261 14.9997C53.3172 15.1106 53.4825 15.2609 53.611 15.4406C53.7395 15.6203 53.8282 15.8253 53.8713 16.042L53.9203 16.285C53.9871 16.6203 53.9419 16.9682 53.7918 17.2753C53.6417 17.5824 53.3949 17.8317 53.0893 17.985L47.5353 20.762L43.3783 15.913C43.1441 15.6447 43.0095 15.3039 42.9973 14.9479C42.9851 14.592 43.096 14.2427 43.3113 13.959V13.959Z" fill="black"/>
<path d="M25.3145 49.3004L25.0355 49.0914C24.6152 48.7763 24.1279 48.5624 23.6114 48.4664C23.095 48.3704 22.5633 48.3949 22.0579 48.538C21.5525 48.6812 21.0869 48.939 20.6974 49.2915C20.308 49.6441 20.0051 50.0817 19.8125 50.5704C19.4997 51.3657 19.4947 52.249 19.7985 53.0478C20.1024 53.8465 20.6932 54.5032 21.4555 54.8894L27.4705 57.9004C27.588 57.9592 27.716 57.9942 27.847 58.0035C27.9781 58.0128 28.1097 57.9962 28.2343 57.9545C28.359 57.9129 28.4742 57.8472 28.5734 57.761C28.6726 57.6749 28.7538 57.57 28.8125 57.4524L31.6395 51.7974C31.851 51.3741 31.9721 50.9113 31.9951 50.4386C32.0182 49.9659 31.9427 49.4936 31.7734 49.0516C31.6041 48.6097 31.3448 48.2077 31.0118 47.8714C30.6789 47.535 30.2797 47.2716 29.8395 47.0978C29.3993 46.924 28.9277 46.8437 28.4548 46.8619C27.9819 46.8801 27.5179 46.9965 27.0924 47.2036C26.6669 47.4108 26.2891 47.7041 25.983 48.0651C25.6769 48.4261 25.4493 48.8468 25.3145 49.3004ZM27.9445 49.0114C28.1235 48.9178 28.3207 48.8644 28.5225 48.855C28.7243 48.8457 28.9257 48.8807 29.1125 48.9574C29.2939 49.03 29.4582 49.1394 29.5951 49.2788C29.732 49.4181 29.8385 49.5844 29.9079 49.767C29.9772 49.9496 30.0079 50.1446 29.9981 50.3397C29.9882 50.5348 29.938 50.7258 29.8505 50.9004L27.4705 55.6614L22.3505 53.1004C22.0338 52.9386 21.7891 52.6642 21.6646 52.3311C21.5401 51.998 21.5447 51.6303 21.6775 51.3004C21.7571 51.0988 21.8825 50.9185 22.0437 50.7736C22.2049 50.6287 22.3976 50.5232 22.6065 50.4654C22.7319 50.4307 22.8614 50.4128 22.9915 50.4124C23.2961 50.4129 23.5922 50.5122 23.8355 50.6954L25.3175 51.8004C25.4494 51.8994 25.6038 51.9642 25.7668 51.989C25.9298 52.0139 26.0964 51.998 26.2518 51.9429C26.4073 51.8877 26.5466 51.795 26.6575 51.673C26.7684 51.551 26.8474 51.4034 26.8875 51.2434L27.2175 49.9244C27.2649 49.7283 27.3545 49.5448 27.4801 49.3868C27.6056 49.2287 27.7641 49.1 27.9445 49.0094V49.0114Z" fill="black"/>
<path d="M19.9995 34.2769V43.9999C19.9995 44.2651 20.1049 44.5194 20.2924 44.707C20.48 44.8945 20.7343 44.9999 20.9995 44.9999C21.2648 44.9999 21.5191 44.8945 21.7066 44.707C21.8942 44.5194 21.9995 44.2651 21.9995 43.9999V34.2769L27.8565 24.5149C27.9875 24.2878 28.024 24.0184 27.9583 23.7647C27.8926 23.511 27.73 23.2932 27.5053 23.1582C27.2807 23.0232 27.012 22.9818 26.7571 23.0429C26.5023 23.104 26.2816 23.2627 26.1425 23.4849L20.9995 32.0559L15.8565 23.4849C15.7902 23.3698 15.7016 23.2691 15.5958 23.1886C15.4901 23.1082 15.3695 23.0496 15.2409 23.0163C15.1123 22.983 14.9783 22.9757 14.8468 22.9947C14.7154 23.0138 14.589 23.0588 14.4751 23.1272C14.3613 23.1957 14.2622 23.2861 14.1837 23.3932C14.1051 23.5004 14.0487 23.6221 14.0178 23.7513C13.9868 23.8805 13.9819 24.0145 14.0033 24.1456C14.0247 24.2767 14.0721 24.4022 14.1425 24.5149L19.9995 34.2769Z" fill="black"/>
<path d="M31 44H40C40.2652 44 40.5196 43.8946 40.7071 43.7071C40.8946 43.5196 41 43.2652 41 43C41 42.7348 40.8946 42.4804 40.7071 42.2929C40.5196 42.1054 40.2652 42 40 42H32V35H40C40.2652 35 40.5196 34.8946 40.7071 34.7071C40.8946 34.5196 41 34.2652 41 34C41 33.7348 40.8946 33.4804 40.7071 33.2929C40.5196 33.1054 40.2652 33 40 33H32V26H40C40.2652 26 40.5196 25.8946 40.7071 25.7071C40.8946 25.5196 41 25.2652 41 25C41 24.7348 40.8946 24.4804 40.7071 24.2929C40.5196 24.1054 40.2652 24 40 24H31C30.7348 24 30.4804 24.1054 30.2929 24.2929C30.1054 24.4804 30 24.7348 30 25V43C30 43.2652 30.1054 43.5196 30.2929 43.7071C30.4804 43.8946 30.7348 44 31 44Z" fill="black"/>
<path d="M47.5 24C46.0413 24 44.6424 24.5795 43.6109 25.6109C42.5795 26.6424 42 28.0413 42 29.5C42 30.9587 42.5795 32.3576 43.6109 33.3891C44.6424 34.4205 46.0413 35 47.5 35C48.1922 35 48.8689 35.2053 49.4445 35.5899C50.0201 35.9744 50.4687 36.5211 50.7336 37.1606C50.9985 37.8001 51.0678 38.5039 50.9327 39.1828C50.7977 39.8617 50.4644 40.4854 49.9749 40.9749C49.4854 41.4644 48.8617 41.7977 48.1828 41.9327C47.5039 42.0678 46.8001 41.9985 46.1606 41.7336C45.5211 41.4687 44.9744 41.0201 44.5899 40.4445C44.2053 39.8689 44 39.1922 44 38.5V38C44 37.7348 43.8946 37.4804 43.7071 37.2929C43.5196 37.1054 43.2652 37 43 37C42.7348 37 42.4804 37.1054 42.2929 37.2929C42.1054 37.4804 42 37.7348 42 38V38.5C42 39.5878 42.3226 40.6512 42.9269 41.5556C43.5313 42.4601 44.3902 43.1651 45.3952 43.5813C46.4002 43.9976 47.5061 44.1065 48.573 43.8943C49.6399 43.6821 50.6199 43.1583 51.3891 42.3891C52.1583 41.6199 52.6821 40.6399 52.8943 39.573C53.1065 38.5061 52.9976 37.4002 52.5813 36.3952C52.1651 35.3902 51.4601 34.5313 50.5556 33.9269C49.6512 33.3226 48.5878 33 47.5 33C46.8078 33 46.1311 32.7947 45.5555 32.4101C44.9799 32.0256 44.5313 31.4789 44.2664 30.8394C44.0015 30.1999 43.9322 29.4961 44.0673 28.8172C44.2023 28.1383 44.5356 27.5146 45.0251 27.0251C45.5146 26.5356 46.1383 26.2023 46.8172 26.0673C47.4961 25.9322 48.1999 26.0015 48.8394 26.2664C49.4789 26.5313 50.0256 26.9799 50.4101 27.5555C50.7947 28.1311 51 28.8078 51 29.5V30C51 30.2652 51.1054 30.5196 51.2929 30.7071C51.4804 30.8946 51.7348 31 52 31C52.2652 31 52.5196 30.8946 52.7071 30.7071C52.8946 30.5196 53 30.2652 53 30V29.5C52.9984 28.0418 52.4184 26.6438 51.3873 25.6127C50.3562 24.5816 48.9582 24.0016 47.5 24Z" fill="black"/>
</svg>
